<svg width="48" height="48" viewBox="0 0 48 48" fill="none" xmlns="http://www.w3.org/2000/svg">
<g id="icon_brand_placeholder">
<g id="Icon">
<path d="M9.42328 4C9.03516 4 8.66293 4.15418 8.38849 4.42862L4.42862 8.38849C4.15418 8.66293 4 9.03516 4 9.42328C4 10.727 5.57631 11.38 6.49821 10.4581L10.4581 6.49821C11.38 5.57631 10.727 4 9.42328 4Z" fill="#001E30"/>
<path d="M17.7016 4C17.3135 4 16.9413 4.15418 16.6668 4.42862L4.42862 16.6668C4.15418 16.9413 4 17.3135 4 17.7016C4 19.0054 5.57631 19.6583 6.49821 18.7364L18.7364 6.4982C19.6583 5.5763 19.0054 4 17.7016 4Z" fill="#001E30"/>
<path d="M25.9799 4C25.5918 4 25.2196 4.15418 24.9451 4.42862L4.42862 24.9451C4.15418 25.2196 4 25.5918 4 25.9799C4 27.2837 5.57631 27.9366 6.49821 27.0147L27.0147 6.4982C27.9366 5.5763 27.2837 4 25.9799 4Z" fill="#001E30"/>
<path d="M34.2582 4C33.8701 4 33.4979 4.15418 33.2235 4.42862L4.42863 33.2235C4.15418 33.4979 4 33.8701 4 34.2582C4 35.562 5.57631 36.2149 6.49821 35.293L35.293 6.4982C36.2149 5.57631 35.562 4 34.2582 4Z" fill="#001E30"/>
<path d="M42.5366 4C42.1485 4 41.7762 4.15418 41.5018 4.42863L4.42863 41.5018C4.15418 41.7762 4 42.1485 4 42.5366C4 43.3448 4.65518 44 5.46341 44C5.85153 44 6.22375 43.8458 6.49819 43.5714L43.5714 6.49819C43.8458 6.22375 44 5.85152 44 5.4634C44 4.65518 43.3448 4 42.5366 4Z" fill="#001E30"/>
<path d="M44 13.7417C44 12.438 42.4237 11.785 41.5018 12.7069L12.7069 41.5018C11.785 42.4237 12.438 44 13.7417 44C14.1298 44 14.5021 43.8458 14.7765 43.5714L43.5714 14.7765C43.8458 14.5021 44 14.1298 44 13.7417Z" fill="#001E30"/>
<path d="M44 22.02C44 20.7163 42.4237 20.0634 41.5018 20.9853L20.9853 41.5018C20.0634 42.4237 20.7163 44 22.02 44C22.4082 44 22.7804 43.8458 23.0548 43.5714L43.5714 23.0548C43.8458 22.7804 44 22.4082 44 22.02Z" fill="#001E30"/>
<path d="M44 30.2984C44 28.9946 42.4237 28.3417 41.5018 29.2636L29.2636 41.5018C28.3417 42.4237 28.9946 44 30.2984 44C30.6865 44 31.0587 43.8458 31.3332 43.5714L43.5714 31.3332C43.8458 31.0587 44 30.6865 44 30.2984Z" fill="#001E30"/>
<path d="M44 38.5767C44 37.2729 42.4237 36.62 41.5018 37.5419L37.5419 41.5018C36.62 42.4237 37.2729 44 38.5767 44C38.9648 44 39.337 43.8458 39.6115 43.5714L43.5714 39.6115C43.8458 39.337 44 38.9648 44 38.5767Z" fill="#001E30"/>
</g>
</g>
</svg>
